# Blender 3.6.5
# www.blender.org
mtllib 相框.mtl
o 相框
v -1.044264 0.000000 0.917920
v 1.044264 0.000000 0.917920
v -1.044264 0.000000 -0.917920
v 1.044264 0.000000 -0.917920
v -0.626558 0.000000 0.917920
v -0.208853 0.000000 1.132384
v 0.208853 0.000000 1.132384
v 0.626558 0.000000 0.917920
v 0.626558 0.000000 -0.917920
v 0.208853 0.000000 -1.132384
v -0.208853 0.000000 -1.132384
v -0.626558 0.000000 -0.917920
v -1.044264 0.000000 -0.522132
v -1.044264 0.000000 0.000000
v -1.044264 0.000000 0.522132
v 1.044264 0.000000 0.522132
v 1.044264 0.000000 0.000000
v 1.044264 0.000000 -0.522132
v -0.926539 0.000000 0.522132
v -0.926539 0.000000 0.800195
v 0.598102 0.000000 0.800195
v 0.926539 0.000000 0.800195
v 0.926539 0.000000 -0.522132
v 0.926539 0.000000 -0.800195
v -0.598102 0.000000 -0.800195
v -0.926539 0.000000 -0.800195
v -0.598102 0.000000 0.800195
v -0.180397 0.000000 1.014659
v 0.180397 0.000000 1.014659
v 0.598102 0.000000 -0.800195
v 0.180397 0.000000 -1.014659
v -0.180397 0.000000 -1.014659
v -0.926539 0.000000 -0.522132
v -0.926539 0.000000 0.000000
v 0.926539 0.000000 0.522132
v 0.926539 0.000000 0.000000
v -0.926539 0.100704 0.522132
v -0.926539 0.100704 0.800195
v 0.598102 0.100704 0.800195
v 0.926539 0.100704 0.800195
v 0.926539 0.100704 -0.522132
v 0.926539 0.100704 -0.800195
v -0.598102 0.100704 -0.800195
v -0.926539 0.100704 -0.800195
v -0.598102 0.100704 0.800195
v -0.180397 0.100704 1.014659
v 0.180397 0.100704 1.014659
v 0.598102 0.100704 -0.800195
v 0.180397 0.100704 -1.014659
v -0.180397 0.100704 -1.014659
v -0.926539 0.100704 -0.522132
v -0.926539 0.100704 0.000000
v 0.926539 0.100704 0.522132
v 0.926539 0.100704 0.000000
v -1.044264 0.100704 0.522132
v -1.044264 0.100704 0.917920
v 0.626558 0.100704 0.917920
v 1.044264 0.100704 0.917920
v 1.044264 0.100704 -0.522132
v 1.044264 0.100704 -0.917920
v -0.626558 0.100704 -0.917920
v -1.044264 0.100704 -0.917920
v -0.626558 0.100704 0.917920
v -0.208853 0.100704 1.132384
v 0.208853 0.100704 1.132384
v 0.626558 0.100704 -0.917920
v 0.208853 0.100704 -1.132384
v -0.208853 0.100704 -1.132384
v -1.044264 0.100704 -0.522132
v -1.044264 0.100704 0.000000
v 1.044264 0.100704 0.522132
v 1.044264 0.100704 0.000000
vn -0.0000 -0.0000 1.0000
vn 1.0000 -0.0000 -0.0000
vn 0.4567 -0.0000 0.8896
vn -1.0000 -0.0000 -0.0000
vn -0.0000 -0.0000 -1.0000
vn -0.4567 -0.0000 0.8896
vn -0.0000 1.0000 -0.0000
vn 0.4567 -0.0000 -0.8896
vn -0.4567 -0.0000 -0.8896
vn -0.0000 -1.0000 -0.0000
vt 0.056367 0.925639
vt 0.213625 0.921124
vt 0.056367 0.750000
vt 0.000000 0.000000
vt 0.943633 0.925639
vt 0.943633 0.750000
vt 0.943633 0.074361
vt 0.786375 0.078875
vt 0.056367 0.074361
vt 0.056367 0.250000
vt 0.413625 0.947360
vt 0.586375 0.951772
vt 0.000000 0.250000
vt 0.800000 0.000000
vt 1.000000 0.000000
vt 1.000000 0.750000
vt 1.000000 1.000000
vt 0.200000 1.000000
vt 0.000000 1.000000
vt 0.213625 0.078875
vt 0.200000 0.000000
vt 0.413625 0.048228
vt 0.400000 0.000000
vt 0.586375 0.052640
vt 0.600000 0.000000
vt 0.786375 0.921124
vt 0.800000 1.000000
vt 0.600000 1.000000
vt 0.400000 1.000000
vt 0.000000 0.750000
vt 0.056367 0.500000
vt 0.000000 0.500000
vt 0.943633 0.250000
vt 1.000000 0.250000
vt 0.943633 0.500000
vt 1.000000 0.500000
s 0
f 26/1/1 25/2/1 43/2/1 44/1/1
f 33/3/2 26/1/2 44/1/2 51/3/2
f 7/4/3 8/4/3 57/4/3 65/4/3
f 24/5/4 23/6/4 41/6/4 42/5/4
f 6/4/1 7/4/1 65/4/1 64/4/1
f 22/7/5 21/8/5 39/8/5 40/7/5
f 5/4/6 6/4/6 64/4/6 63/4/6
f 20/9/2 19/10/2 37/10/2 38/9/2
f 1/4/1 5/4/1 63/4/1 56/4/1
f 17/4/2 18/4/2 59/4/2 72/4/2
f 12/4/5 3/4/5 62/4/5 61/4/5
f 16/4/2 17/4/2 72/4/2 71/4/2
f 25/2/3 32/11/3 50/11/3 43/2/3
f 18/4/2 4/4/2 60/4/2 59/4/2
f 2/4/2 16/4/2 71/4/2 58/4/2
f 32/11/1 31/12/1 49/12/1 50/11/1
f 8/4/1 2/4/1 58/4/1 57/4/1
f 14/4/4 15/4/4 55/4/4 70/4/4
f 38/9/7 37/10/7 55/13/7 56/4/7
f 40/7/7 39/8/7 57/14/7 58/15/7
f 42/5/7 41/6/7 59/16/7 60/17/7
f 44/1/7 43/2/7 61/18/7 62/19/7
f 45/20/7 38/9/7 56/4/7 63/21/7
f 46/22/7 45/20/7 63/21/7 64/23/7
f 47/24/7 46/22/7 64/23/7 65/25/7
f 39/8/7 47/24/7 65/25/7 57/14/7
f 48/26/7 42/5/7 60/17/7 66/27/7
f 49/12/7 48/26/7 66/27/7 67/28/7
f 50/11/7 49/12/7 67/28/7 68/29/7
f 43/2/7 50/11/7 68/29/7 61/18/7
f 51/3/7 44/1/7 62/19/7 69/30/7
f 52/31/7 51/3/7 69/30/7 70/32/7
f 37/10/7 52/31/7 70/32/7 55/13/7
f 53/33/7 40/7/7 58/15/7 71/34/7
f 54/35/7 53/33/7 71/34/7 72/36/7
f 41/6/7 54/35/7 72/36/7 59/16/7
f 4/4/5 9/4/5 66/4/5 60/4/5
f 34/31/2 33/3/2 51/3/2 52/31/2
f 27/20/5 20/9/5 38/9/5 45/20/5
f 9/4/8 10/4/8 67/4/8 66/4/8
f 19/10/2 34/31/2 52/31/2 37/10/2
f 28/22/8 27/20/8 45/20/8 46/22/8
f 10/4/5 11/4/5 68/4/5 67/4/5
f 35/33/4 22/7/4 40/7/4 53/33/4
f 29/24/5 28/22/5 46/22/5 47/24/5
f 11/4/9 12/4/9 61/4/9 68/4/9
f 36/35/4 35/33/4 53/33/4 54/35/4
f 21/8/9 29/24/9 47/24/9 39/8/9
f 3/4/4 13/4/4 69/4/4 62/4/4
f 23/6/4 36/35/4 54/35/4 41/6/4
f 30/26/1 24/5/1 42/5/1 48/26/1
f 13/4/4 14/4/4 70/4/4 69/4/4
f 15/4/4 1/4/4 56/4/4 55/4/4
f 31/12/6 30/26/6 48/26/6 49/12/6
f 35/33/10 16/4/10 2/4/10 22/7/10
f 36/35/10 17/4/10 16/4/10 35/33/10
f 23/6/10 18/4/10 17/4/10 36/35/10
f 24/5/10 4/4/10 18/4/10 23/6/10
f 30/26/10 9/4/10 4/4/10 24/5/10
f 31/12/10 10/4/10 9/4/10 30/26/10
f 32/11/10 11/4/10 10/4/10 31/12/10
f 25/2/10 12/4/10 11/4/10 32/11/10
f 26/1/10 3/4/10 12/4/10 25/2/10
f 33/3/10 13/4/10 3/4/10 26/1/10
f 34/31/10 14/4/10 13/4/10 33/3/10
f 19/10/10 15/4/10 14/4/10 34/31/10
f 20/9/10 1/4/10 15/4/10 19/10/10
f 27/20/10 5/4/10 1/4/10 20/9/10
f 28/22/10 6/4/10 5/4/10 27/20/10
f 29/24/10 7/4/10 6/4/10 28/22/10
f 21/8/10 8/4/10 7/4/10 29/24/10
f 22/7/10 2/4/10 8/4/10 21/8/10
